<svg width="29" height="29" viewBox="0 0 29 29" fill="none" xmlns="http://www.w3.org/2000/svg">
<path d="M11.9937 8.67463L19.0399 8.67463C19.2734 8.67466 19.4974 8.76745 19.6625 8.93259C19.8276 9.09773 19.9204 9.3217 19.9205 9.55524L19.9205 16.6014C19.9165 16.8323 19.8219 17.0524 19.6572 17.2142C19.4925 17.3761 19.2708 17.4668 19.0399 17.4668C18.8089 17.4668 18.5872 17.3761 18.4225 17.2142C18.2578 17.0524 18.1633 16.8323 18.1592 16.6014L18.1592 11.6814L9.91176 19.9289C9.74659 20.0941 9.52257 20.1869 9.28898 20.1869C9.05539 20.1869 8.83137 20.0941 8.6662 19.9289C8.50103 19.7637 8.40823 19.5397 8.40823 19.3061C8.40823 19.0725 8.50103 18.8485 8.6662 18.6833L16.9137 10.4359L11.9937 10.4358C11.8768 10.4379 11.7606 10.4166 11.652 10.3733C11.5434 10.3299 11.4445 10.2654 11.3611 10.1834C11.2777 10.1014 11.2114 10.0037 11.1662 9.89582C11.121 9.78797 11.0977 9.67219 11.0977 9.55524C11.0977 9.43829 11.121 9.32251 11.1662 9.21466C11.2114 9.10681 11.2777 9.00904 11.3611 8.92707C11.4445 8.8451 11.5434 8.78056 11.652 8.73721C11.7606 8.69387 11.8768 8.67259 11.9937 8.67463Z" fill="white" stroke="white" stroke-width="0.5"/>
</svg>
