<svg xmlns="http://www.w3.org/2000/svg" version="1.1" xmlns:xlink="http://www.w3.org/1999/xlink" width="150" height="150"><svg xmlns="http://www.w3.org/2000/svg" version="1.1" xmlns:xlink="http://www.w3.org/1999/xlink" width="150" height="150"><svg width="150" height="150" viewBox="0 0 150 150" fill="none" xmlns="http://www.w3.org/2000/svg">
<path d="M29.6829 26H84.2453L54.3658 110.757H29.6829L5 69.0305L29.6829 26Z" fill="#D10123"></path>
<path d="M50.4686 37.7379H36.1783L17.9909 69.0326L36.1783 99.0235H50.4686L32.281 69.0326L50.4686 37.7379Z" fill="white"></path>
<path d="M120.317 124H65.7547L95.6341 39.2433L120.317 39.2432L145 80.9695L120.317 124Z" fill="#1B80C8"></path>
<path d="M120.722 124H67.0538L96.4433 40.5472H120.722L145 81.6317L120.722 124Z" fill="#1B80C8"></path>
<path d="M99.5317 112.267H113.822L132.009 80.9724L113.822 50.9817L99.5314 50.9817L117.719 80.9724L99.5317 112.267Z" fill="white"></path>
<path d="M99.5317 112.267H113.822L132.009 80.9724L113.822 50.9817L99.5314 50.9817L117.719 80.9724L99.5317 112.267Z" fill="white"></path>
</svg></svg><style>@media (prefers-color-scheme: light) { :root { filter: none; } }
@media (prefers-color-scheme: dark) { :root { filter: none; } }
</style></svg>